<mxfile host="app.diagrams.net" modified="2024-04-20T15:54:45.195Z" agent="Mozilla/5.0 (Windows NT 10.0; Win64; x64; rv:124.0) Gecko/20100101 Firefox/124.0" version="24.2.7" etag="3cOujqGGx0btSGLrtQCI" type="github">
  <diagram name="Page-1" id="NRt85jGZVW6aBtxDKEJC">
    <mxGraphModel>
      <root>
        <mxCell id="0" />
        <mxCell id="1" parent="0" />
      </root>
    </mxGraphModel>
  </diagram>
</mxfile>
